HIERARCHY
ROOT Hips
{
	OFFSET 0.000000 0.000000 0.000000
	CHANNELS 6 Xposition Yposition Zposition Zrotation Xrotation Yrotation
	JOINT LeftUpLeg
	{
		OFFSET 4.065250 -3.907320 0.417110
		CHANNELS 3 Zrotation Xrotation Yrotation
		JOINT LeftLeg
		{
			OFFSET 0.000230 -18.482100 0.003670
			CHANNELS 3 Zrotation Xrotation Yrotation
			JOINT LeftFoot
			{
				OFFSET -0.001720 -15.289800 -0.026290
				CHANNELS 3 Zrotation Xrotation Yrotation
				JOINT LeftToeBase
				{
					OFFSET 0.367430 -3.191310 5.542870
					CHANNELS 3 Zrotation Xrotation Yrotation
					JOINT LeftToeBase2
					{
						OFFSET 0.087510 0.048490 1.367580
						CHANNELS 3 Zrotation Xrotation Yrotation
						JOINT LeftToeBase3
						{
							OFFSET 0.074840 0.067850 1.167070
						}
					}
				}
			}
		}
	}
	JOINT RightUpLeg
	{
		OFFSET -4.065260 -3.907310 0.417120
		CHANNELS 3 Zrotation Xrotation Yrotation
		JOINT RightLeg
		{
			OFFSET -0.000290 -18.482100 0.004400
			CHANNELS 3 Zrotation Xrotation Yrotation
			JOINT RightFoot
			{
				OFFSET 0.001600 -15.289800 -0.025690
				CHANNELS 3 Zrotation Xrotation Yrotation
				JOINT RightToeBase
				{
					OFFSET -0.354200 -3.191090 5.543860
					CHANNELS 3 Zrotation Xrotation Yrotation
					JOINT RightToeBase2
					{
						OFFSET -0.084240 0.048540 1.367780
						CHANNELS 3 Zrotation Xrotation Yrotation
						JOINT RightToeBase3
						{
							OFFSET -0.072050 0.067900 1.167250
						}
					}
				}
			}
		}
	}
	JOINT Spine
	{
		OFFSET 0.000010 4.465170 -0.102240
		CHANNELS 3 Zrotation Xrotation Yrotation
		JOINT Spine1
		{
			OFFSET 0.000010 4.462120 -0.182400
			CHANNELS 3 Zrotation Xrotation Yrotation
			JOINT Spine2
			{
				OFFSET 0.000000 4.379370 -0.881000
				CHANNELS 3 Zrotation Xrotation Yrotation
				JOINT Spine3
				{
					OFFSET 0.000010 4.682860 0.214140
					CHANNELS 3 Zrotation Xrotation Yrotation
					JOINT Neck
					{
						OFFSET 0.000000 1.769640 0.824540
						CHANNELS 3 Zrotation Xrotation Yrotation
						JOINT Head
						{
							OFFSET 0.000000 1.696100 0.931450
							CHANNELS 3 Zrotation Xrotation Yrotation
							JOINT Head_End
							{
								OFFSET 0.000010 7.837500 1.526030
							}
						}
					}
					JOINT LeftShoulder
					{
						OFFSET 1.193810 -0.758810 -0.027680
						CHANNELS 3 Zrotation Xrotation Yrotation
						JOINT LeftArm
						{
							OFFSET 5.187790 -0.000020 0.000010
							CHANNELS 3 Zrotation Xrotation Yrotation
							JOINT LeftForeArm
							{
								OFFSET 12.736400 -0.000040 0.000020
								CHANNELS 3 Zrotation Xrotation Yrotation
								JOINT LeftHand
								{
									OFFSET 9.214520 -0.000020 0.000010
									CHANNELS 3 Zrotation Xrotation Yrotation
								}
							}
						}
					}
					JOINT RightShoulder
					{
						OFFSET -1.193810 -0.758810 -0.027670
						CHANNELS 3 Zrotation Xrotation Yrotation
						JOINT RightArm
						{
							OFFSET -5.187790 0.000010 -0.000010
							CHANNELS 3 Zrotation Xrotation Yrotation
							JOINT RightForeArm
							{
								OFFSET -12.736400 0.000030 -0.000020
								CHANNELS 3 Zrotation Xrotation Yrotation
								JOINT RightHand
								{
									OFFSET -9.214520 0.000020 -0.000010
									CHANNELS 3 Zrotation Xrotation Yrotation
								}
							}
						}
					}
				}
			}
		}
	}
}
MOTION
Frames: 7
Frame Time: 0.016667
-0.000000 34.494202 -0.000003 -0.941263 19.729277 0.317769 4.866110 -44.755405 5.779171  -12.299911 79.641205 11.986709  -1.649420 -43.677303 2.061860  -0.000000 0.000000 -0.000000  -0.000000 0.000000 -0.000000   -2.046410 20.240801 -8.144311  -0.240282 9.808541 0.277313  4.705120 -20.896400 -0.728569  0.000000 -0.000000 -0.000000  -0.000000 0.000000 -0.000000   -2.066430 8.516271 4.085220  0.003405 4.577050 2.130020  0.609585 2.198091 2.075970  3.852490 1.725720 3.568400  -5.052560 -12.624500 -9.738930  -1.406380 -31.564503 -11.131302   -1.810850 3.731360 -13.681801  -71.957191 17.064701 28.069399  2.733870 1.404410 -74.667007  14.739401 -17.053501 -22.606701  -6.928801 -1.426990 5.033470  52.083996 5.998630 18.279802  4.040120 -1.066800 102.431000  -9.581061 -2.208540 0.965049 
0.108986 34.480701 1.345369 -1.241201 19.940790 2.519482 3.271023 -41.125511 4.108753  -9.954947 77.552696 9.749738  -2.046469 -46.519096 2.139380  -0.000000 0.000000 -0.000000  -0.000000 0.000000 -0.000000   -1.787261 16.183809 -7.259033  -0.540175 21.049883 0.463816  5.850788 -17.782705 -3.032686  0.000000 -0.000000 -0.000000  -0.000000 0.000000 -0.000000   -1.950701 8.184812 3.384161  -0.166881 4.573571 1.748831  0.234235 2.450599 1.674071  2.431413 2.454158 2.901561  -2.914594 -11.812702 -9.515732  -1.021371 -30.038609 -10.673903   -1.477371 3.875460 -14.348400  -69.123512 18.470999 23.397614  2.729860 1.405130 -74.574905  18.022795 -20.189091 -21.445303  -4.676095 -0.949892 4.033763  54.116795 7.801426 15.505905  3.689751 -1.285750 93.589935  -3.833071 0.443357 0.876978 
0.234004 34.502701 2.783360 -1.745549 20.081348 4.922288 2.405643 -37.804417 2.610775  -8.334478 75.506218 8.150718  -2.015930 -47.968102 1.306143  -0.000000 0.000000 -0.000000  -0.000000 0.000000 -0.000000   -1.338052 9.857626 -6.533663  -1.108197 35.666637 0.811733  2.502582 -11.210125 -3.922487  0.000000 -0.000000 -0.000000  -0.000000 0.000000 -0.000000   -1.646071 7.861681 2.568683  -0.302029 4.555851 1.331722  -0.092890 2.658210 1.240502  1.086795 3.079618 2.180003  -1.111267 -10.996003 -9.340872  -0.352999 -28.368412 -10.202102   -1.582550 3.912879 -14.483601  -64.976616 20.134396 17.292023  2.739410 1.403420 -74.794205  22.472383 -23.069489 -20.844805  -1.929130 -0.327359 3.601212  56.622097 8.745778 12.232113  3.190462 -1.485699 82.071251  -2.536794 0.286676 1.561497 
0.372233 34.558399 4.286068 -2.419164 20.118601 7.554767 2.045432 -34.411716 1.070159  -7.027929 73.258812 6.750530  -2.105249 -48.661499 -0.034094  -0.000000 0.000000 -0.000000  -0.000000 0.000000 -0.000000   -0.818716 2.644962 -5.983584  -2.190702 51.296909 1.626343  -1.863315 -5.245564 -3.668133  0.000000 -0.000000 -0.000000  -0.000000 0.000000 -0.000000   -1.106103 7.596143 1.618266  -0.408592 4.539980 0.893238  -0.363106 2.825969 0.787704  -0.128202 3.605737 1.421735  0.552082 -10.026406 -9.234453  0.592542 -26.962908 -9.799371   -1.820479 3.786451 -14.324503  -60.149834 21.403694 10.131443  2.792000 1.393310 -76.005386  26.497671 -24.733988 -20.692801  1.017443 0.348496 3.393632  59.197590 9.194948 8.392723  2.629213 -1.584290 69.863983  -3.291216 -1.204442 2.166217 
0.485706 34.583302 5.756393 -2.764606 20.103632 10.121047 1.606623 -31.140526 -0.669433  -6.048788 71.063820 5.699677  -2.419877 -48.891701 -1.445199  -0.000000 0.000000 -0.000000  -0.000000 0.000000 -0.000000   -0.881417 -3.928921 -5.301595  -4.230927 65.095398 3.448048  -4.771758 -3.756631 -1.076040  0.000000 -0.000000 -0.000000  -0.000000 0.000000 -0.000000   -0.844896 7.549062 0.726626  -0.568042 4.594190 0.463312  -0.633024 2.996239 0.335970  -1.208242 4.048336 0.662913  2.217437 -8.648580 -9.242700  2.077069 -26.565804 -9.548021   -2.011189 3.391864 -13.952803  -54.784946 21.680302 2.111861  2.947149 1.356681 -79.611374  28.680984 -23.377811 -21.112196  3.929588 0.988677 3.265381  61.306480 9.105881 3.952404  2.091584 -1.566481 58.342880  -5.831271 -4.033000 1.684384 
0.594776 34.593800 7.229494 -2.981168 20.069838 12.617536 1.308393 -27.811031 -2.479084  -5.188687 68.600433 4.796727  -2.876106 -48.790302 -2.869507  -0.000000 0.000000 -0.000000  -0.000000 0.000000 -0.000000   -1.247247 -10.434141 -4.779225  -9.857965 77.468376 8.890249  -7.266238 -4.084697 1.072220  0.000000 -0.000000 -0.000000  -0.000000 0.000000 -0.000000   -0.650085 7.682548 -0.146431  -0.722284 4.700979 0.030964  -0.863065 3.159229 -0.117950  -2.135412 4.399288 -0.106967  3.831605 -7.538451 -9.453039  3.421717 -26.621798 -9.530681   -1.860731 2.792146 -13.682003  -49.927444 20.840313 -6.160215  3.148278 1.293371 -84.381256  28.851299 -20.409029 -22.185390  6.472876 1.571405 3.037763  63.189487 8.943424 -1.126613  1.683284 -1.478771 49.404579  -8.229389 -6.671376 1.180695 
0.705193 34.585098 8.697295 -3.137343 20.048962 15.030021 1.140671 -24.334641 -4.342049  -4.396998 65.697037 4.012838  -3.457124 -48.640903 -4.119856  -0.000000 0.000000 -0.000000  -0.000000 0.000000 -0.000000   -1.985402 -17.144728 -4.743001  -64.327202 87.328247 63.204006  -9.357214 -4.831811 -0.318275  0.000000 -0.000000 -0.000000  -0.000000 0.000000 -0.000000   -0.442300 8.037827 -0.987096  -0.844511 4.876628 -0.397945  -1.038438 3.327008 -0.564930  -2.905262 4.665827 -0.874079  5.251943 -7.518741 -10.167592  3.974754 -26.768000 -10.080894   -1.037980 2.004769 -13.907598  -46.781826 18.329130 -14.084109  3.359788 1.206001 -89.558235  25.087048 -16.346251 -24.523874  8.229869 2.031915 2.339489  64.893768 9.229577 -6.982801  1.540442 -1.431811 46.188946  -8.164271 -7.296684 1.344298 
